<svg aria-hidden="true" style="position: absolute; width: 0; height: 0; overflow: hidden;" version="1.1" xmlns="http://www.w3.org/2000/svg" xmlns:xlink="http://www.w3.org/1999/xlink">
<defs>
<symbol id="icon-success" viewBox="0 0 35 32">
<path d="M2.8 16c-0-2.317 0.609-4.594 1.768-6.601s2.825-3.674 4.831-4.832c2.007-1.159 4.283-1.769 6.6-1.769s4.594 0.61 6.601 1.768c0.276 0.157 0.602 0.198 0.908 0.115s0.566-0.284 0.725-0.558c0.158-0.274 0.202-0.6 0.121-0.907s-0.28-0.568-0.553-0.728c-2.974-1.717-6.431-2.405-9.836-1.957s-6.566 2.007-8.995 4.435-3.988 5.59-4.436 8.994c-0.448 3.405 0.239 6.862 1.956 9.836s4.367 5.298 7.539 6.613 6.69 1.545 10.007 0.657c3.317-0.888 6.248-2.847 8.339-5.571s3.224-6.062 3.225-9.496c0-0.318-0.126-0.623-0.352-0.848s-0.53-0.351-0.848-0.351-0.624 0.126-0.848 0.351c-0.225 0.225-0.352 0.53-0.352 0.848 0 3.501-1.391 6.858-3.866 9.334s-5.833 3.866-9.334 3.866c-3.501 0-6.858-1.391-9.334-3.866s-3.866-5.833-3.866-9.334z"></path>
<path d="M33.65 4.85c0.112-0.112 0.2-0.244 0.26-0.39s0.091-0.302 0.091-0.46-0.031-0.314-0.091-0.46c-0.060-0.146-0.149-0.278-0.26-0.39s-0.244-0.2-0.39-0.26c-0.146-0.060-0.302-0.091-0.46-0.091s-0.314 0.031-0.46 0.091c-0.146 0.060-0.278 0.149-0.39 0.26l-15.95 15.953-6.35-6.353c-0.112-0.112-0.244-0.2-0.39-0.26s-0.302-0.091-0.46-0.091c-0.158 0-0.314 0.031-0.46 0.091s-0.278 0.149-0.39 0.26c-0.112 0.112-0.2 0.244-0.26 0.39s-0.091 0.302-0.091 0.46c0 0.158 0.031 0.314 0.091 0.46s0.149 0.278 0.26 0.39l7.2 7.2c0.111 0.112 0.244 0.2 0.39 0.261s0.302 0.092 0.46 0.092c0.158 0 0.314-0.031 0.46-0.092s0.278-0.149 0.39-0.261l16.8-16.8z"></path>
</symbol>
<symbol id="icon-error" viewBox="0 0 32 32">
<path d="M9.080 0.292c0.187-0.187 0.441-0.292 0.706-0.292h12.428c0.265 0 0.519 0.105 0.706 0.292l8.788 8.788c0.187 0.187 0.292 0.441 0.292 0.706v12.428c0 0.265-0.105 0.519-0.292 0.706l-8.788 8.788c-0.187 0.187-0.441 0.292-0.706 0.292h-12.428c-0.265 0-0.519-0.105-0.706-0.292l-8.788-8.788c-0.187-0.187-0.292-0.441-0.292-0.706v-12.428c0-0.265 0.105-0.519 0.292-0.706l8.788-8.788zM10.2 2l-8.2 8.2v11.6l8.2 8.2h11.6l8.2-8.2v-11.6l-8.2-8.2h-11.6z"></path>
<path d="M9.292 9.292c0.093-0.093 0.203-0.167 0.325-0.217s0.252-0.076 0.383-0.076c0.132 0 0.262 0.026 0.383 0.076s0.232 0.124 0.325 0.217l5.292 5.294 5.292-5.294c0.093-0.093 0.203-0.167 0.325-0.217s0.252-0.076 0.383-0.076c0.131 0 0.262 0.026 0.383 0.076s0.232 0.124 0.325 0.217c0.093 0.093 0.167 0.203 0.217 0.325s0.076 0.252 0.076 0.383-0.026 0.262-0.076 0.383c-0.050 0.121-0.124 0.232-0.217 0.325l-5.294 5.292 5.294 5.292c0.093 0.093 0.167 0.203 0.217 0.325s0.076 0.252 0.076 0.383-0.026 0.262-0.076 0.383c-0.050 0.121-0.124 0.232-0.217 0.325s-0.203 0.167-0.325 0.217-0.252 0.076-0.383 0.076c-0.131 0-0.262-0.026-0.383-0.076s-0.232-0.124-0.325-0.217l-5.292-5.294-5.292 5.294c-0.093 0.093-0.203 0.167-0.325 0.217s-0.252 0.076-0.383 0.076c-0.132 0-0.262-0.026-0.383-0.076s-0.232-0.124-0.325-0.217c-0.093-0.093-0.167-0.203-0.217-0.325s-0.076-0.252-0.076-0.383c0-0.131 0.026-0.262 0.076-0.383s0.124-0.232 0.217-0.325l5.294-5.292-5.294-5.292c-0.093-0.093-0.167-0.203-0.217-0.325s-0.076-0.252-0.076-0.383c0-0.132 0.026-0.262 0.076-0.383s0.124-0.232 0.217-0.325z"></path>
</symbol>
</defs>
</svg>
